<svg width="25" height="25" viewBox="0 0 25 25" fill="none" xmlns="http://www.w3.org/2000/svg">
<path d="M12.5 21.5C17.4706 21.5 21.5 17.4706 21.5 12.5C21.5 7.52944 17.4706 3.5 12.5 3.5C7.52944 3.5 3.5 7.52944 3.5 12.5C3.5 17.4706 7.52944 21.5 12.5 21.5Z" stroke="#1D43E0" stroke-width="2" stroke-linecap="round" stroke-linejoin="round"/>
<path d="M14 16.5C14 17.3284 13.3284 18 12.5 18C11.6716 18 11 17.3284 11 16.5C11 15.6716 11.6716 15 12.5 15C13.3284 15 14 15.6716 14 16.5Z" fill="#1D43E0"/>
<path d="M11.0858 8.61416C11.4754 8.22454 11.9858 8.02928 12.4965 8.02838C13.0095 8.02748 13.5228 8.22274 13.9142 8.61416C14.3047 9.00469 14.5 9.51654 14.5 10.0284C14.5 10.5402 14.3047 11.0521 13.9142 11.4426C13.5228 11.834 13.0095 12.0293 12.4965 12.0284L12.5 13.0284" stroke="#1D43E0" stroke-width="2" stroke-linecap="round" stroke-linejoin="round"/>
</svg>
